C:\GBW_MyPrograms\PredSimResults\Vitruvian_man\IG_v10ms.mot
version=1
nRows=12
nColumns=35
inDegrees=yes
endheader
                time	         pelvis_tilt	           pelvis_tx	           pelvis_ty	       hip_flexion_r	        knee_angle_r	       ankle_angle_r	         mtp_angle_r	       hip_flexion_l	        knee_angle_l	       ankle_angle_l	         mtp_angle_l	    lumbar_extension	          arm_flex_r	          arm_flex_l	        elbow_flex_r	        elbow_flex_l	hamstrings_r/activation	bifemsh_r/activation	glut_max_r/activation	iliopsoas_r/activation	rect_fem_r/activation	  vasti_r/activation	gastroc_r/activation	 soleus_r/activation	tib_ant_r/activation	hamstrings_l/activation	bifemsh_l/activation	glut_max_l/activation	iliopsoas_l/activation	rect_fem_l/activation	  vasti_l/activation	gastroc_l/activation	 soleus_l/activation	tib_ant_l/activation	
          0.77219558	          0.16807001	          0.77219558	          0.95893472	        -21.45099564	         -2.06775891	          8.45037181	         16.18859515	         27.61412893	         -3.83759977	         -1.86641949	          0.22280746	        -12.73696676	         28.94995560	         28.94191530	         90.44887052	         90.32503116	          0.07003191	          0.18170643	          0.05000098	          0.34891788	          0.05000051	          0.05000075	          0.38814473	          0.27419850	          0.05000039	          0.18193338	          0.05000829	          0.05909440	          0.05000242	          0.05328593	          0.05000187	          0.05000474	          0.05000037	          0.31874402	
          0.78763950	         -0.68454815	          0.79344327	          0.95561649	        -20.90616707	         -3.79816543	          7.96046345	         17.26272592	         26.71484211	         -2.46621918	         -3.18261405	          0.26228485	        -11.41080162	         30.28255675	         30.27637458	         93.09601833	         92.96399265	          0.07779150	          0.15477129	          0.05000086	          0.30151926	          0.05000028	          0.05000048	          0.35450075	          0.26121943	          0.05000018	          0.18576683	          0.05000005	          0.08090723	          0.05000024	          0.05000092	          0.05000457	          0.05532335	          0.05000021	          0.38397495	
          0.80308341	         -1.58817423	          0.81553684	          0.95270666	        -20.16341305	         -5.83271091	          7.15583019	         18.28806000	         25.82832575	         -1.34119201	         -5.09460655	          0.26303089	         -9.92346535	         31.00970528	         31.00526994	         95.70830547	         95.57023537	          0.08110734	          0.12444012	          0.05000893	          0.25347466	          0.05000028	          0.05000041	          0.29882601	          0.23459826	          0.05000014	          0.18452055	          0.05029148	          0.11360940	          0.05000023	          0.05000048	          0.05000038	          0.05000018	          0.05000004	          0.55050291	
          0.81852732	         -2.52914428	          0.83778060	          0.95079928	        -19.06547995	         -8.36654915	          5.93602249	         19.17054553	         25.08040221	         -0.34018232	         -7.26674529	          0.20870858	         -8.37511011	         31.11216753	         31.10926344	         98.26615824	         98.12485517	          0.08140112	          0.10259981	          0.05000132	          0.20158694	          0.05000022	          0.05000022	          0.23765422	          0.18657436	          0.05000013	          0.18733445	          0.05000348	          0.15331595	          0.05000018	          0.05000058	          0.05000493	          0.05000021	          0.05000006	          0.71953932	
          0.83397123	         -3.48408066	          0.85969477	          0.95020251	        -17.54880572	        -11.47080568	          4.23511610	         19.75421950	         24.58365864	          0.15482992	         -8.63000927	          0.16510538	         -6.84357680	         30.56643972	         30.56470586	        100.76261003	        100.62143891	          0.07747252	          0.09136581	          0.05000052	          0.16032074	          0.05000018	          0.05000011	          0.18900470	          0.14838125	          0.05000011	          0.18469281	          0.05000417	          0.19479311	          0.05000019	          0.05000060	          0.05001963	          0.05000019	          0.05000009	          0.81505896	
          0.84941514	         -4.42586026	          0.88109926	          0.95087981	        -15.67277657	        -15.02833949	          1.98776400	         19.91016281	         24.30079881	          0.20172398	         -9.32169666	          0.12093495	         -5.36980257	         29.35036390	         29.34916909	        103.19503496	        103.05757268	          0.07249881	          0.10661786	          0.05000024	          0.12750203	          0.05000014	          0.05000005	          0.15031409	          0.11800655	          0.05000018	          0.17854926	          0.05000391	          0.23158069	          0.05000024	          0.05000088	          0.05003540	          0.05000017	          0.05000009	          0.83562511	
          0.86485906	         -5.32667144	          0.90199794	          0.95257539	        -13.57520387	        -18.85406616	         -0.40720726	         19.04594263	         24.14762110	         -0.08588510	         -9.40501974	          0.02037497	         -3.97314286	         27.46168937	         27.46016157	        105.54858998	        105.41782162	          0.06004214	          0.08489265	          0.05000019	          0.10140157	          0.05000015	          0.05000004	          0.11954373	          0.09384976	          0.21350590	          0.17161438	          0.05000189	          0.26565351	          0.05000020	          0.05000063	          0.05013292	          0.05000019	          0.05000013	          0.77519604	
          0.88030297	         -6.16689830	          0.92235405	          0.95505952	        -11.38503718	        -22.84457384	         -2.08329673	         16.47337967	         24.02702756	         -0.55940519	         -8.86398612	         -0.15796557	         -2.67391629	         24.93391662	         24.93090220	        107.77842728	        107.65693056	          0.05000025	          0.06751645	          0.05000016	          0.08064600	          0.05000048	          0.05000006	          0.09507228	          0.07463805	          0.36129941	          0.15815551	          0.05000269	          0.27495251	          0.05000025	          0.05000077	          0.05005397	          0.05000023	          0.05000015	          0.66136603	
          0.89574688	         -6.93346264	          0.94220683	          0.95814709	         -9.28412525	        -26.50271143	         -2.33273429	         13.48045497	         23.83456910	         -1.00665457	         -8.12075462	         -0.32278939	         -1.48149193	         21.81443989	         21.80826822	        109.82187071	        109.71297272	          0.05000022	          0.06775131	          0.05000013	          0.08374582	          0.05000129	          0.05000005	          0.07561035	          0.05935913	          0.36585384	          0.14329995	          0.05001505	          0.25947685	          0.05000035	          0.05000092	          0.05000895	          0.05000024	          0.05000013	          0.55444754	
          0.91119079	         -7.61617272	          0.96171322	          0.96167342	         -7.36215590	        -29.57419019	         -1.90271433	         11.07712521	         23.50285060	         -1.32123289	         -7.37142769	         -0.44109305	         -0.39191397	         18.15608622	         18.14456908	        111.61092138	        111.51885541	          0.05000035	          0.09622692	          0.05000013	          0.08955500	          0.05000103	          0.05000005	          0.06013267	          0.05000016	          0.33815404	          0.13178743	          0.05003448	          0.23695822	          0.05000031	          0.05000064	          0.05000464	          0.05000024	          0.05000013	          0.46949549	
          0.92663470	         -8.20817294	          0.98096309	          0.96543661	         -5.61680747	        -32.10243627	         -1.39452537	          9.09757560	         23.01121203	         -1.48222520	         -6.68209564	         -0.50944092	          0.59329492	         14.04657318	         14.02757395	        113.07585053	        113.00490506	          0.05000063	          0.12182354	          0.05000013	          0.09682987	          0.05000157	          0.05000006	          0.05058805	          0.05000015	          0.31825210	          0.12002788	          0.05003963	          0.20803232	          0.05000027	          0.05000057	          0.05000398	          0.05000023	          0.05000013	          0.40556862	
          0.94207861	         -8.70411569	          0.99996157	          0.96924552	         -4.02021757	        -34.18718242	         -1.02069035	          7.47588070	         22.36901410	         -1.51640357	         -6.05998254	         -0.53875237	          1.46391940	          9.59924656	          9.57173389	        114.14917806	        114.10303918	          0.05000135	          0.15043484	          0.05000014	          0.10284639	          0.05000218	          0.05000006	          0.05000489	          0.05000015	          0.31111635	          0.10874905	          0.05002528	          0.18040861	          0.05000022	          0.05000049	          0.05000483	          0.05000023	          0.05000013	          0.35755771	
